<?xml version="1.0" standalone="no"?>
<!DOCTYPE svg PUBLIC "-//W3C//DTD SVG 20010904//EN"
 "http://www.w3.org/TR/2001/REC-SVG-20010904/DTD/svg10.dtd">
<svg version="1.0" xmlns="http://www.w3.org/2000/svg"
 width="400.000000pt" height="400.000000pt" viewBox="0 0 400.000000 400.000000"
 preserveAspectRatio="xMidYMid meet">
<metadata>
Created by potrace 1.14, written by Peter Selinger 2001-2017
</metadata>
<g transform="translate(0.000000,400.000000) scale(0.100000,-0.100000)"
fill="#000000" stroke="none">
<path d="M1849 3996 c-2 -2 -36 -6 -75 -10 -39 -3 -77 -8 -85 -10 -8 -3 -32
-8 -54 -10 -22 -3 -40 -5 -40 -6 0 -2 -20 -6 -65 -14 -19 -4 -96 -27 -170 -52
-260 -88 -499 -228 -704 -414 -74 -68 -102 -96 -161 -165 -33 -38 -64 -75 -70
-81 -21 -25 -92 -127 -132 -192 -109 -173 -215 -443 -252 -642 -6 -30 -13 -68
-16 -85 -16 -86 -20 -147 -20 -325 1 -107 6 -224 13 -260 6 -36 14 -83 17
-105 25 -167 108 -392 221 -605 28 -51 130 -209 143 -220 3 -3 19 -23 35 -44
148 -198 421 -421 664 -541 122 -60 263 -117 322 -130 8 -2 26 -8 40 -13 14
-5 28 -10 33 -10 7 -1 76 -15 137 -28 145 -31 521 -40 650 -15 36 6 79 14 95
16 17 2 30 4 30 5 0 2 19 6 64 14 58 11 263 82 351 122 267 121 495 291 691
515 55 62 189 243 189 254 0 3 12 24 27 48 88 136 202 432 232 604 6 32 13 72
16 88 16 84 20 147 20 325 -1 110 -6 225 -13 265 -7 39 -15 84 -18 100 -52
322 -229 681 -469 953 -133 151 -291 282 -472 389 -83 50 -164 94 -183 99 -5
1 -61 25 -115 49 -25 11 -63 25 -85 30 -3 1 -12 4 -20 7 -38 13 -91 29 -107
33 -10 2 -40 9 -68 15 -67 16 -76 18 -127 25 -23 3 -56 8 -73 11 -38 6 -391
15 -396 10z m286 -460 c38 -3 79 -7 90 -10 29 -6 104 -18 112 -18 5 0 18 -4
31 -9 12 -5 33 -11 45 -13 67 -13 367 -141 387 -166 3 -3 22 -16 43 -28 154
-89 368 -311 481 -499 86 -143 171 -368 192 -503 2 -14 6 -36 9 -50 3 -14 7
-56 10 -95 2 -38 5 -72 6 -75 0 -3 1 -47 0 -98 0 -86 -4 -136 -16 -202 -3 -14
-7 -41 -10 -60 -5 -30 -13 -66 -29 -130 -14 -53 -55 -159 -96 -246 -182 -387
-530 -685 -945 -810 -44 -14 -91 -27 -105 -29 -14 -3 -34 -7 -45 -9 -28 -5
-94 -16 -135 -21 -40 -6 -268 -6 -320 -1 -30 3 -67 10 -185 32 -69 13 -248 76
-326 115 -82 41 -127 66 -194 112 -33 22 -62 43 -65 46 -3 4 -25 22 -50 41
-64 49 -192 183 -254 265 -64 84 -143 223 -187 325 -33 77 -91 263 -91 290 0
8 -4 29 -9 45 -5 17 -11 66 -14 110 -2 44 -5 82 -6 85 -3 17 0 172 6 224 5 53
35 210 50 266 21 80 93 259 111 281 8 8 14 20 14 25 0 21 107 179 185 273 148
179 403 361 610 436 28 10 56 23 63 28 6 5 12 7 12 3 0 -3 12 -1 28 5 40 16
121 36 172 44 25 4 63 10 86 14 22 4 71 9 109 10 38 1 71 3 72 4 2 3 54 0 158
-7z"/>
<path d="M1130 2000 l0 -970 613 0 614 0 1 213 c0 116 -2 219 -4 228 -4 14
-44 16 -372 15 -202 -1 -374 0 -382 2 -13 3 -15 93 -14 743 l1 739 -229 0
-228 0 0 -970z"/>
<path d="M2695 1483 c-73 -15 -128 -53 -163 -113 -33 -55 -37 -153 -10 -210
35 -73 110 -124 190 -129 92 -5 181 45 222 127 38 75 22 190 -36 251 -50 53
-141 86 -203 74z"/>
</g>
</svg>
